<!DOCTYPE svg PUBLIC "-//W3C//DTD SVG 20010904//EN" "http://www.w3.org/TR/2001/REC-SVG-20010904/DTD/svg10.dtd">
<svg version="1.0" xmlns="http://www.w3.org/2000/svg" width="578px" height="432px" viewBox="0 0 5780 4320" preserveAspectRatio="xMidYMid meet">
<g id="layer101" fill="#060202" stroke="none">
 <path d="M57 4133 c-26 -26 11 -136 85 -253 19 -30 46 -80 60 -110 14 -30 61 -110 104 -177 44 -68 169 -263 279 -435 198 -310 377 -563 484 -688 112 -129 388 -415 551 -569 170 -161 304 -268 590 -471 158 -112 247 -190 298 -260 14 -19 45 -55 68 -80 41 -43 117 -149 264 -366 36 -52 95 -139 132 -192 37 -53 87 -125 110 -160 24 -34 79 -111 123 -170 81 -109 108 -128 141 -102 31 27 14 59 -128 237 -193 241 -178 222 -350 447 -245 318 -290 386 -258 386 5 0 54 -23 107 -50 211 -109 372 -157 466 -139 64 12 93 33 113 84 19 50 14 97 -17 157 -28 54 -24 87 13 125 28 29 33 41 36 98 3 44 8 65 17 65 7 0 56 -46 109 -102 199 -213 398 -375 556 -453 179 -90 436 -143 632 -132 l103 6 50 -52 c28 -29 77 -90 109 -137 88 -126 192 -254 243 -299 49 -43 109 -69 124 -54 17 17 -2 42 -65 87 -43 31 -92 82 -155 163 -113 146 -206 281 -199 289 4 3 44 14 91 24 102 22 234 68 319 110 157 78 267 207 297 348 15 71 14 108 -4 200 -29 143 -101 271 -214 380 -106 102 -198 133 -276 93 -21 -12 -44 -21 -50 -21 -5 1 -23 24 -40 53 -20 35 -36 52 -50 52 -17 0 -20 -6 -17 -42 2 -42 2 -43 -29 -43 -28 0 -153 28 -224 51 -16 5 -95 28 -175 50 -80 22 -179 52 -220 65 -45 15 -109 27 -165 30 -155 9 -151 7 -184 72 -16 32 -50 89 -76 127 -26 39 -55 86 -65 105 -55 107 -354 473 -513 629 -225 221 -352 304 -468 305 -123 2 -152 -89 -118 -369 27 -215 68 -374 153 -590 20 -49 36 -96 36 -104 0 -20 -30 9 -93 89 -78 98 -107 119 -131 94 -9 -8 -16 -20 -16 -25 0 -5 24 -37 53 -71 58 -69 235 -302 312 -413 27 -38 65 -89 84 -113 30 -37 33 -47 23 -63 -28 -44 -11 -93 65 -186 108 -132 134 -204 92 -257 -36 -46 -28 -53 -224 204 -191 250 -420 461 -598 552 -68 34 -96 33 -116 -3 -13 -24 -12 -31 8 -82 34 -83 149 -253 227 -336 83 -89 220 -206 334 -288 96 -68 144 -95 210 -114 68 -20 87 -35 120 -102 45 -90 37 -163 -21 -187 -113 -47 -621 174 -794 345 -33 33 -95 103 -137 155 -159 197 -422 513 -483 580 -22 25 -58 67 -80 94 -22 27 -67 81 -101 120 -122 144 -350 412 -507 600 -38 44 -90 105 -115 135 -26 30 -72 84 -102 121 -301 364 -369 445 -423 509 -101 120 -295 353 -328 394 -29 35 -48 45 -62 30z m548 -713 c161 -190 346 -408 412 -485 65 -77 233 -277 373 -445 140 -167 304 -361 365 -430 365 -410 497 -570 470 -570 -3 0 -106 75 -228 167 -196 148 -249 194 -457 401 -230 229 -274 277 -480 531 -215 264 -321 417 -582 841 -169 276 -208 343 -208 360 0 23 36 -17 335 -370z m2309 -130 c45 -21 110 -62 146 -89 177 -135 447 -440 617 -695 40 -61 92 -137 115 -169 55 -78 92 -148 81 -156 -4 -4 -29 -24 -56 -45 -75 -60 -95 -123 -63 -201 25 -60 165 -265 261 -381 27 -34 70 -87 94 -118 24 -30 105 -115 180 -188 120 -117 148 -140 237 -186 106 -55 132 -77 158 -126 24 -47 8 -56 -99 -56 -200 0 -373 40 -550 126 -164 80 -303 184 -455 341 -151 154 -185 197 -205 261 -10 29 -21 55 -26 58 -18 11 -8 35 31 75 48 50 56 83 41 191 -6 46 -12 94 -14 107 -1 18 -10 27 -32 33 -59 16 -70 -13 -35 -91 27 -59 27 -140 0 -169 -12 -12 -29 -22 -40 -22 -42 0 -285 333 -348 476 -51 117 -120 301 -139 372 -8 31 -21 80 -29 107 -69 244 -83 495 -33 559 29 37 68 33 163 -14z m-409 -1253 c81 -61 226 -185 304 -260 90 -87 310 -355 311 -379 1 -21 -43 -2 -144 62 -124 77 -168 113 -339 272 -145 137 -271 316 -254 362 6 15 10 15 35 2 15 -8 55 -35 87 -59z m1845 15 c96 -28 195 -58 220 -67 156 -55 341 -92 383 -76 36 14 36 -3 1 -72 -28 -55 -83 -236 -84 -274 0 -15 6 -23 18 -23 13 0 28 29 62 117 51 132 99 219 137 247 36 26 101 25 144 -2 48 -31 77 -58 137 -130 136 -164 178 -357 110 -505 -52 -112 -211 -246 -354 -300 -69 -26 -174 -50 -269 -62 -47 -6 -52 -5 -83 28 -28 29 -32 40 -30 78 3 40 1 44 -22 47 -47 7 -73 40 -285 366 -42 65 -102 160 -133 209 -32 50 -75 119 -97 154 -128 201 -185 297 -185 310 0 30 138 11 330 -45z m-387 26 c8 -13 54 -90 102 -173 49 -82 125 -204 170 -270 82 -122 144 -218 157 -245 9 -18 66 -103 126 -190 73 -107 53 -118 -59 -34 -101 77 -107 83 -223 214 -213 242 -417 516 -431 581 -8 38 17 84 63 113 47 31 78 32 95 4z"/>
 </g>

</svg>